<svg id="logo" xmlns="http://www.w3.org/2000/svg" xmlns:xlink="http://www.w3.org/1999/xlink" width="146.953" height="81.728" viewBox="0 0 146.953 81.728">
  <defs>
    <style>
      .cls-1 {
        fill: none;
      }

      .cls-2 {
        fill: #01aef0;
      }

      .cls-3 {
        clip-path: url(#clip-path);
      }

      .cls-4 {
        fill: #fff;
      }

      .cls-5 {
        fill: #ff4f3f;
      }

      .cls-6 {
        fill: #16213e;
      }
    </style>
    <clipPath id="clip-path">
      <rect id="Ret창ngulo_52960" data-name="Ret창ngulo 52960" class="cls-1" width="146.953" height="81.728"/>
    </clipPath>
  </defs>
  <path id="Caminho_12883" data-name="Caminho 12883" class="cls-2" d="M150.61,156.99v12.339h9.1V167h-6.226V156.99Z" transform="translate(-84.243 -87.812)"/>
  <rect id="Ret창ngulo_52959" data-name="Ret창ngulo 52959" class="cls-2" width="2.869" height="12.339" transform="translate(89.673 69.178)"/>
  <path id="Caminho_12884" data-name="Caminho 12884" class="cls-2" d="M256.868,156.99l-4.574,7.668-4.648-7.668H245.27v12.339h2.7v-7.244l3.636,5.94h1.291l3.653-6.1.018,7.4h2.7l-.035-12.339Z" transform="translate(-137.191 -87.812)"/>
  <g id="Grupo_5678" data-name="Grupo 5678">
    <g id="Grupo_5677" data-name="Grupo 5677" class="cls-3">
      <path id="Caminho_12885" data-name="Caminho 12885" class="cls-2" d="M320.39,165.446c0,2.062-1.723,3.825-5.266,3.825a8.879,8.879,0,0,1-5.054-1.428l.974-2.15a7.333,7.333,0,0,0,4.1,1.287c1.7,0,2.393-.564,2.393-1.322,0-2.309-7.218-.723-7.218-5.305,0-2.1,1.7-3.842,5.231-3.842a8.374,8.374,0,0,1,4.31,1.093l-.886,2.168a7.047,7.047,0,0,0-3.441-.969c-1.7,0-2.358.635-2.358,1.41,0,2.274,7.218.705,7.218,5.235" transform="translate(-173.437 -87.544)"/>
      <path id="Caminho_12886" data-name="Caminho 12886" class="cls-4" d="M112.451,48.355V88.419a1.851,1.851,0,0,1-1.851,1.855h-5.495a1.852,1.852,0,0,1-1.855-1.855V48.355a1.852,1.852,0,0,1,1.855-1.855H110.6a1.851,1.851,0,0,1,1.851,1.855" transform="translate(-57.753 -26.01)"/>
      <path id="Caminho_12887" data-name="Caminho 12887" class="cls-4" d="M162.105,95.423a10.652,10.652,0,0,1-1.789.613,16.725,16.725,0,0,1-4.12.5q-5.605,0-8.672-2.86t-3.067-8.412V72.351h-3.01a1.835,1.835,0,0,1-1.838-1.833V67.182a1.836,1.836,0,0,1,1.838-1.838h3.01V59.528a1.839,1.839,0,0,1,1.838-1.838h5.438a1.839,1.839,0,0,1,1.838,1.838v5.817h5.988a1.834,1.834,0,0,1,1.838,1.838v3.336a1.833,1.833,0,0,1-1.838,1.833H153.57V85.143a4.277,4.277,0,0,0,1.022,3.067,3.775,3.775,0,0,0,2.891,1.084,6.607,6.607,0,0,0,2.045-.308,1.865,1.865,0,0,1,2.366,1.058l1.163,3.045a1.836,1.836,0,0,1-.952,2.335" transform="translate(-78.091 -32.269)"/>
      <path id="Caminho_12888" data-name="Caminho 12888" class="cls-4" d="M225.176,74.379v4.609a1.859,1.859,0,0,1-1.9,1.864H223.1a8.475,8.475,0,0,0-6.231,2.225q-2.254,2.221-2.256,6.676v13.206a1.865,1.865,0,0,1-1.864,1.864h-5.526a1.865,1.865,0,0,1-1.864-1.864V74.766a1.866,1.866,0,0,1,1.864-1.868h5.112a1.868,1.868,0,0,1,1.864,1.868v2.344a10.288,10.288,0,0,1,4.481-3.5,15.28,15.28,0,0,1,4.495-1.093,1.849,1.849,0,0,1,2,1.86" transform="translate(-114.868 -40.559)"/>
      <path id="Caminho_12889" data-name="Caminho 12889" class="cls-5" d="M29.264,16.851V20a.733.733,0,0,1-.736.731H25.381A.73.73,0,0,1,24.65,20V16.851a.73.73,0,0,1,.731-.731h3.146a.733.733,0,0,1,.736.731" transform="translate(-13.788 -9.017)"/>
      <path id="Caminho_12890" data-name="Caminho 12890" class="cls-5" d="M41.489.674V2.265a.677.677,0,0,1-.674.674H39.224a.674.674,0,0,1-.674-.674V.674A.671.671,0,0,1,39.224,0h1.591a.674.674,0,0,1,.674.674" transform="translate(-21.563)"/>
      <path id="Caminho_12891" data-name="Caminho 12891" class="cls-4" d="M36.808,53.744V74.68c0,.141,0,.282,0,.419a25.448,25.448,0,0,1-.555,5.164,16,16,0,0,1-4.288,8.174q-4.719,4.7-13.114,4.816c-.145,0-.3,0-.441,0a26.669,26.669,0,0,1-3.891-.269,19.21,19.21,0,0,1-4.874-1.335,15.21,15.21,0,0,1-4.794-3.217Q0,83.618,0,74.68V53.744A1.822,1.822,0,0,1,1.824,51.92h8.412a1.9,1.9,0,0,1,.85.2,2.911,2.911,0,0,0,1.04,1.282,1.668,1.668,0,0,1,.062.472V76.4a6.33,6.33,0,0,0,5.918,6.385c.1,0,.207,0,.308,0s.207,0,.313,0a6.21,6.21,0,0,0,5.892-6.2V53.872a1.844,1.844,0,0,1,.062-.472,2.841,2.841,0,0,0,1.04-1.287,1.945,1.945,0,0,1,.85-.194h8.412a1.822,1.822,0,0,1,1.824,1.824" transform="translate(0 -29.041)"/>
      <path id="Caminho_12892" data-name="Caminho 12892" class="cls-2" d="M40.684,74.474V88.095a4,4,0,0,1-3.79,4c-.057,0-.11,0-.172,0h-.079c-.053,0-.106,0-.163,0a4.148,4.148,0,0,1-3.82-4.182V72.509c.11-.009.216-.009.317-.009a3.841,3.841,0,0,1,2.406.731,6.553,6.553,0,0,0,3.975,1.384,6.461,6.461,0,0,0,1.326-.141" transform="translate(-18.268 -40.553)"/>
      <path id="Caminho_12893" data-name="Caminho 12893" class="cls-5" d="M41.011,36.911v3.838a.881.881,0,0,1-.881.881H36.291a.878.878,0,0,1-.881-.881V36.911a.881.881,0,0,1,.881-.881h3.838a.884.884,0,0,1,.881.881" transform="translate(-19.807 -20.153)"/>
      <path id="Caminho_12894" data-name="Caminho 12894" class="cls-6" d="M262.163,90.758q-.251.43-.476.872c.159-.308.322-.6.489-.89-.009.009-.009.013-.013.018m-.476.872c-.167.326-.326.661-.467,1,.145-.344.3-.674.467-1" transform="translate(-146.113 -50.755)"/>
      <path id="Caminho_12895" data-name="Caminho 12895" class="cls-4" d="M288.967,72.934h-3.5a2.482,2.482,0,0,0-2.428,2.009,16.133,16.133,0,0,0-16.56-.269,15.669,15.669,0,0,0-2.168,1.5.1.1,0,0,0-.022.022,17.026,17.026,0,0,0-3.71,4.327.092.092,0,0,1-.018.026c-.167.286-.331.582-.489.89s-.322.652-.467,1c-.009.026-.022.048-.031.075-.035.088-.07.172-.1.256A16.2,16.2,0,0,0,283,102.542a2.471,2.471,0,0,0,2.468,2.388h3.5a2.481,2.481,0,0,0,2.481-2.481V75.411a2.48,2.48,0,0,0-2.481-2.476m-13.66,24.324c-4.266,0-7.725-3.825-7.725-8.549s3.459-8.553,7.725-8.553,7.72,3.829,7.72,8.553-3.459,8.549-7.72,8.549" transform="translate(-144.495 -40.564)"/>
      <path id="Caminho_12896" data-name="Caminho 12896" class="cls-6" d="M274.068,77.4a15.672,15.672,0,0,0-2.168,1.5,13.186,13.186,0,0,1,2.164-1.5Z" transform="translate(-152.087 -43.294)"/>
    </g>
  </g>
</svg>
